# xmcd CD database file
#
# Track frame offsets:
#	150
#	16012
#	34920
#	53550
#	69450
#	82447
#	103932
#	109862
#	125400
#	147390
#
# Disc length: 2269 seconds
#
# Revision: 0
# Processed by: cddbd v1.5.1PL0 Copyright (c) Steve Scherf et al.
# Submitted via: CDex 1.51
#
DISCID=8c08db0a
DTITLE=Bobby Caldwell - Evening Scandal
DYEAR=1978
DGENRE=AOR
TTITLE0=Special To Me
TTITLE1=My Flame
TTITLE2=Love Won't Wait
TTITLE3=Can't Say Goodbye
TTITLE4=Come To Me
TTITLE5=What You Won't Do For Love
TTITLE6=Kalimba Song
TTITLE7=Take Me Back To Then
TTITLE8=Down For The Third Time
TTITLE9=Can't Say Goodbye (Analog Version)
EXTD=YEAR: 1978
EXTT0=
EXTT1=
EXTT2=
EXTT3=
EXTT4=
EXTT5=
EXTT6=
EXTT7=
EXTT8=
EXTT9=
PLAYORDER=
